<svg width="36" height="37" viewBox="0 0 36 37" fill="none" xmlns="http://www.w3.org/2000/svg">
<rect y="0.599976" width="36" height="36" rx="18" fill="#7F56D9"/>
<path d="M11.75 26.9333V22.7667M11.75 14.4333V10.2667M9.66669 12.35H13.8334M9.66669 24.85H13.8334M18.8334 11.1L17.3882 14.8574C17.1532 15.4684 17.0357 15.7739 16.853 16.0309C16.691 16.2587 16.492 16.4577 16.2643 16.6196C16.0073 16.8023 15.7018 16.9198 15.0907 17.1548L11.3334 18.6L15.0907 20.0451C15.7018 20.2802 16.0073 20.3977 16.2643 20.5804C16.492 20.7423 16.691 20.9413 16.853 21.1691C17.0357 21.4261 17.1532 21.7316 17.3882 22.3426L18.8334 26.1L20.2785 22.3426C20.5135 21.7316 20.631 21.4261 20.8137 21.1691C20.9757 20.9413 21.1747 20.7423 21.4025 20.5804C21.6594 20.3977 21.9649 20.2802 22.576 20.0451L26.3334 18.6L22.576 17.1548C21.9649 16.9198 21.6594 16.8023 21.4024 16.6196C21.1747 16.4577 20.9757 16.2587 20.8137 16.0309C20.631 15.7739 20.5135 15.4684 20.2785 14.8574L18.8334 11.1Z" stroke="white" stroke-width="2" stroke-linecap="round" stroke-linejoin="round"/>
</svg>
